<?xml version="1.0" standalone="no"?>
<!DOCTYPE svg PUBLIC "-//W3C//DTD SVG 20010904//EN"
 "http://www.w3.org/TR/2001/REC-SVG-20010904/DTD/svg10.dtd">
<svg version="1.0" xmlns="http://www.w3.org/2000/svg"
 width="512.000000pt" height="512.000000pt" viewBox="0 0 512.000000 512.000000"
 preserveAspectRatio="xMidYMid meet">
<metadata>
Created by potrace 1.14, written by Peter Selinger 2001-2017
</metadata>
<g transform="translate(0.000000,512.000000) scale(0.100000,-0.100000)"
fill="#000000" stroke="none">
<path d="M400 5109 c-19 -5 -42 -11 -51 -13 -36 -9 -109 -47 -109 -57 0 -6 -4
-7 -10 -4 -5 3 -40 -25 -78 -63 -73 -74 -117 -150 -138 -242 -19 -78 -20
-4214 -1 -4203 9 5 9 3 -1 -9 -23 -29 -3 -145 43 -242 30 -64 151 -196 179
-196 9 0 16 -4 16 -8 0 -9 44 -32 61 -32 6 0 7 5 3 12 -4 7 -3 8 5 4 6 -4 9
-11 6 -16 -21 -34 42 -35 2235 -35 1271 0 2163 4 2175 9 11 5 23 8 28 8 4 -1
37 12 73 30 74 36 157 104 147 120 -3 7 -1 8 6 4 7 -4 15 2 20 16 6 13 10 19
10 13 1 -5 12 10 26 33 14 24 22 49 18 55 -3 5 -1 7 4 4 6 -4 18 18 29 51 18
55 19 130 19 2217 l0 2160 -22 59 c-58 150 -166 255 -316 307 l-80 28 -2131
-1 c-1230 0 -2146 -4 -2166 -9z m4171 -106 c13 -16 12 -17 -3 -4 -17 13 -22
21 -14 21 2 0 10 -8 17 -17z m-761 -27 c0 -2 -8 -10 -17 -17 -16 -13 -17 -12
-4 4 13 16 21 21 21 13z m791 -743 c13 -16 12 -17 -3 -4 -17 13 -22 21 -14 21
2 0 10 -8 17 -17z m-390 -1110 c13 -16 12 -17 -3 -4 -10 7 -18 15 -18 17 0 8
8 3 21 -13z m-3711 -1877 c0 -2 -8 -10 -17 -17 -16 -13 -17 -12 -4 4 13 16 21
21 21 13z m520 -360 c0 -2 -8 -10 -17 -17 -16 -13 -17 -12 -4 4 13 16 21 21
21 13z"/>
</g>
</svg>
